<?xml version="1.0" encoding="utf-8"?>
<!-- Generator: Adobe Illustrator 21.0.0, SVG Export Plug-In . SVG Version: 6.00 Build 0)  -->
<svg version="1.1" id="Layer_1" xmlns="http://www.w3.org/2000/svg" xmlns:xlink="http://www.w3.org/1999/xlink" x="0px" y="0px"
	 viewBox="0 0 443 144.6" style="enable-background:new 0 0 443 144.6;" xml:space="preserve">
<style type="text/css">
	.st0{fill:#0CAD8C;}
	.st1{fill:none;stroke:#0CAD8C;stroke-width:2.144;}
	.st2{fill:#FFFFFF;}
</style>
<title>Tessin Original Logo</title>
<desc>Created with Sketch.</desc>
<g id="Page-1">
	<g id="Tessin-Original-Logo" transform="translate(1.000000, 1.000000)">
		<path id="Fill-1" class="st0" d="M8.2,70.4c0-35.6,22.9-64.5,51.1-64.5c28.2,0,51.1,28.9,51.1,64.5c0,35.6-22.9,64.5-51.1,64.5
			C31.1,134.9,8.2,106,8.2,70.4"/>
		<path id="Stroke-2" class="st1" d="M4.1,70.9c0-37.6,24.7-68.1,55.2-68.1c30.5,0,55.2,30.5,55.2,68.1S89.8,139,59.3,139
			C28.8,139,4.1,108.5,4.1,70.9L4.1,70.9z"/>
		<path id="Fill-4" class="st2" d="M80.9,34c0,0,4.7,4.9,6.9,8.6c1.7,2.9,3.5,4.6,3.5,8c0,1.5-1,2.3-0.6,3.7c0.4,1.5,1.8,1.8,2.7,3
			c1,1.3,1.6,2,2.3,3.6c1.4,3.3,5.2,8.5,0.3,9.1c-0.7,0.1-2.8-0.1-3.3,1.2c-0.3,0.7-0.1,1.3,0.1,2.1c0.1,0.8,0.8,1.2,0.5,2
			c-0.3,0.8-1.8,1.2-1.8,1.2s1.2,0.9,1.2,1.7c-0.1,1-1.9,0.6-2,1.6c-0.1,0.5,0.1,0.7,0.2,1.2c0.2,0.8,0.7,1.2,0.9,2
			c0.3,1.5,0.2,2.6-0.5,4c-1.4,2.6-4.7,0.7-7.3,2.3c-1,0.6-1.5,1-2.3,1.8c-1.6,1.6-2.9,5.2-2.9,5.2s4.7,17,2.5,15.7
			c0,0-7.4-4.4-14.8-8.6c-4-2.3-6.3-3.2-9.9-1.7c-3.2,1.3-2.9,4.7-5.6,6.8c-2.3,1.8-3.6,3.1-6.5,3.5c-3.6,0.5-5.4-1.8-8.9-2.8
			c-4-1.1-7.8,0.6-10.4-2.6c-2.9-3.7,1-7.3,1.1-12c0-3.4-0.5-5.4-0.4-8.8c0.2-4.2,0.6-6.6,1.8-10.6c0.8-2.8-0.9-4.7-1-7.8
			c-0.1-4.5,1.3-7.8,1.4-11.3c0.3-5.6-0.7-7.9,1.3-12.3c2.1-4.6,5.6-5.7,9-9.5c3.2-3.6,3.8-6.8,7.8-9.4c3.2-2,5.6-1.9,9.1-3.1
			c3.4-1.2,5.1-3,8.7-3.2c3-0.2,4.6,0.6,7.5,1.3c2.3,0.6,4,0.4,5.9,1.8c3.3,2.3,4.3,5.4,4.2,9.4C81.5,32.2,80.9,34,80.9,34"/>
		<path id="Fill-5" d="M158,50.4v41c0,1.2,0.5,2.2,1.3,3.1c0.9,0.8,1.9,1.3,3.1,1.3h0.8l0.1,0.7h-21.2v-0.7h0.9c1.2,0,2.2-0.4,3-1.3
			c0.9-0.8,1.4-1.8,1.5-3V50.4h-9.4c-2.1,0-3.8,0.7-5.1,2c-1.3,1.3-1.9,3-1.9,5.1v0.8h-0.7V46.3c0.7,0.3,1.8,0.6,3.5,0.8
			c1.7,0.3,3.3,0.4,4.8,0.4h28.2c2.3,0,4.1-0.2,5.6-0.6c1.4-0.3,2.3-0.6,2.7-0.7v12.2h-0.7v-0.8c0-2.1-0.6-3.8-1.9-5.1
			c-1.3-1.3-3-2-5.1-2H158"/>
		<path id="Fill-6" d="M190.3,95.8c1.2,0,2.2-0.4,3.1-1.3c0.9-0.9,1.4-1.9,1.4-3.1V52.5c-0.1-1.6-0.9-2.8-2.3-3.6
			c-0.7-0.4-1.4-0.6-2.2-0.6h-0.9v-0.7h26.8c1.4,0,3-0.1,4.8-0.4c1.7-0.3,2.9-0.6,3.6-0.8v12.2h-0.7v-0.8c0-2.1-0.6-3.8-1.9-5
			c-1.2-1.3-2.9-2-5-2.1h-11.7v20.3h9.2c1.7,0,3.1-0.6,4.3-1.7c1.1-1.2,1.7-2.6,1.7-4.3v-0.6h0.7v16.1h-0.7v-0.6
			c0-2.3-0.9-4.1-2.8-5.2c-0.9-0.5-2-0.8-3.1-0.8h-9.3v19.6h9.2c3.4,0,6.2-1,8.5-2.9c2.3-2,4.1-4.7,5.2-8.3h0.7l-3.2,14.3h-36.2
			v-0.7H190.3"/>
		<path id="Fill-7" d="M244.5,90c0-3.4,0.7-6.2,2.2-8.6h0.6c0,0.4-0.1,0.7-0.1,1.1c0,3.2,1.1,6,3.4,8.5c2.3,2.4,5.5,3.6,9.5,3.6
			c3.1,0,5.5-0.7,7.3-2.2c1.8-1.5,2.7-3.4,2.7-5.7c0-2.7-1.9-5.1-5.6-7.2l-12.2-8c-2.4-1.4-4.2-3.1-5.2-5c-1-2-1.5-4-1.5-6.1
			c0-4.4,1.4-7.8,4.1-10.1c2.8-2.4,6.4-3.6,10.7-3.6c2.6,0,5.7,0.2,9.5,0.7h4.4l-0.9,10.3h-0.7c0-2.4-0.9-4.4-2.7-5.8
			c-1.8-1.5-4.1-2.2-7.1-2.2c-3.6,0-6.3,1.1-7.9,3.4c-0.8,1.1-1.3,2.3-1.3,3.6c0,2.2,1.6,4.3,4.9,6.2l13.3,8.7
			c4.2,2.4,6.3,6,6.3,10.7c0,5-1.7,8.8-5.1,11.5c-3.4,2.6-7.8,3.9-13.4,3.9c-3.2,0-6.1-0.4-8.8-1.1c-2.7-0.8-4.6-1.8-5.9-3.1
			C244.7,92.3,244.5,91.2,244.5,90l18.6,52.7"/>
		<path id="Fill-8" d="M295.4,90c0-3.4,0.7-6.2,2.2-8.6h0.6c0,0.4-0.1,0.7-0.1,1.1c0,3.2,1.1,6,3.4,8.5c2.3,2.4,5.5,3.6,9.5,3.6
			c3.1,0,5.5-0.7,7.3-2.2c1.8-1.5,2.7-3.4,2.7-5.7c0-2.7-1.9-5.1-5.6-7.2l-12.2-8c-2.4-1.4-4.2-3.1-5.2-5c-1-2-1.5-4-1.5-6.1
			c0-4.4,1.4-7.8,4.1-10.1c2.8-2.4,6.4-3.6,10.7-3.6c2.6,0,5.7,0.2,9.5,0.7h4.4l-0.9,10.3h-0.7c0-2.4-0.9-4.4-2.7-5.8
			c-1.8-1.5-4.1-2.2-7.1-2.2c-3.6,0-6.3,1.1-7.9,3.4c-0.8,1.1-1.3,2.3-1.3,3.6c0,2.2,1.6,4.3,4.9,6.2l13.3,8.7
			c4.2,2.4,6.3,6,6.3,10.7c0,5-1.7,8.8-5.1,11.5c-3.4,2.6-7.8,3.9-13.4,3.9c-3.2,0-6.1-0.4-8.8-1.1c-2.7-0.8-4.6-1.8-5.9-3.1
			C295.5,92.3,295.4,91.2,295.4,90"/>
		<path id="Fill-9" d="M346.6,95.8c1.2,0,2.2-0.4,3.1-1.3c0.9-0.9,1.4-1.9,1.4-3.1V52.6c0-1.2-0.5-2.2-1.4-3.1
			c-0.8-0.8-1.9-1.3-3.1-1.3h-0.9v-0.7h21.2l-0.1,0.7H366c-1.2,0-2.3,0.4-3.1,1.3c-0.9,0.8-1.3,1.9-1.3,3.1v38.8
			c0,1.2,0.4,2.3,1.3,3.1c0.9,0.8,1.9,1.3,3.1,1.3h0.8l0.1,0.7h-21.2v-0.7H346.6"/>
		<path id="Fill-10" d="M437.3,48.3c-1.2,0-2.2,0.4-3,1.3c-0.8,0.8-1.3,1.8-1.3,2.9v36.1c0,3.1,0.2,5.8,0.6,7.9l0.2,1h-0.6
			l-35.3-33.6v27.7c0,1.2,0.4,2.2,1.3,3c0.8,0.8,1.8,1.2,3,1.2h1.3v0.7h-21.2v-0.7h1.3c1.2,0,2.2-0.4,3.1-1.2
			c0.8-0.8,1.3-1.9,1.3-3.1V55.3c0-3.1-0.2-5.6-0.6-7.7l-0.1-1h0.6L423,80.1V52.5c0-1.2-0.5-2.2-1.3-3c-0.8-0.8-1.8-1.3-3-1.3h-1.3
			v-0.7h21.2v0.7H437.3"/>
	</g>
</g>
</svg>
